<svg xmlns="http://www.w3.org/2000/svg" aria-hidden="true" style="width:0;height:0;position:absolute;overflow:hidden"><defs><symbol id="icon-arrow-store" viewBox="0 0 32 32"><path d="M30.907 5.914a.64.64 0 0 0-.532-.732l-5.689-.901a.64.64 0 0 0-.2 1.264l5.057.801-.801 5.057a.64.64 0 0 0 1.264.2l.901-5.689zM1.656 27.398 30.651 6.332l-.752-1.036L.904 26.362l.752 1.036z"/></symbol><symbol id="icon-arrow-left" viewBox="0 0 32 32"><path d="m3.87 17.385-1.561-1.062L32 16.322v-.831l-29.505.001 1.471-.845-.414-.72-3.384 1.945 3.235 2.2.467-.687z"/></symbol><symbol id="icon-arrow-right" viewBox="0 0 32 32"><path d="m21.674 14.79 1.203.818L0 15.609v.64l22.733-.001-1.133.651.319.555 2.608-1.498-2.493-1.695-.36.529z"/></symbol><symbol id="icon-burger" viewBox="0 0 32 32"><path d="M4 5.333h24V8H4V5.333zm8 9.334h16v2.667H12v-2.667zM4 24h24v2.667H4V24z"/></symbol><symbol id="icon-error-logo" viewBox="0 0 32 32"><path d="M0 16C0 7.162 7.162 0 16 0s16 7.162 16 16c0 8.837-7.163 16-16 16S0 24.837 0 16zm10.938-2.994 2.944 2.938-2.944 2.994c-.581.588-.581 1.538 0 2.069.588.637 1.537.637 2.069 0l2.938-2.888 2.994 2.888c.588.637 1.538.637 2.069 0 .637-.531.637-1.481 0-2.069l-2.888-2.994 2.888-2.938c.637-.531.637-1.481 0-2.069-.531-.581-1.481-.581-2.069 0l-2.994 2.944-2.938-2.944c-.531-.581-1.481-.581-2.069 0-.581.588-.581 1.537 0 2.069z"/></symbol><symbol id="icon-facebook" viewBox="0 0 32 32"><path stroke-linecap="round" stroke-linejoin="round" stroke-width="2.286" d="M24 2.667h-4a6.67 6.67 0 0 0-6.667 6.667v4h-4v5.333h4v10.667h5.333V18.667h4l1.333-5.333h-5.333v-4A1.333 1.333 0 0 1 19.999 8h4V2.667z"/></symbol><symbol id="icon-instagram" viewBox="0 0 32 32"><path stroke-linecap="round" stroke-linejoin="round" stroke-width="2.286" d="M22.666 2.667H9.333a6.667 6.667 0 0 0-6.667 6.667v13.333a6.667 6.667 0 0 0 6.667 6.667h13.333a6.667 6.667 0 0 0 6.667-6.667V9.334a6.667 6.667 0 0 0-6.667-6.667z"/><path stroke-linecap="round" stroke-linejoin="round" stroke-width="2.286" d="M21.333 15.16a5.336 5.336 0 0 1-6.123 6.049 5.33 5.33 0 0 1-3.916-7.663 5.33 5.33 0 0 1 5.546-2.878 5.334 5.334 0 0 1 4.493 4.493zm2.001-6.493h.013"/></symbol><symbol id="icon-store-logo" viewBox="0 0 32 32"><path d="M26.386 17.053a2.27 2.27 0 0 1 .173-.658c.093-.203.196-.358.311-.466l.285.208a1.72 1.72 0 0 0-.436.981c-.031.272-.011.472.059.601a.409.409 0 0 0 .322.218.304.304 0 0 0 .256-.076.592.592 0 0 0 .165-.246c.045-.105.086-.224.123-.355s.077-.263.122-.394c.044-.127.099-.242.166-.345a.758.758 0 0 1 .264-.24c.105-.054.239-.072.403-.054.156.017.291.077.404.177s.195.238.245.413c.053.179.066.389.039.632a2.088 2.088 0 0 1-.139.546 1.5 1.5 0 0 1-.242.436l-.291-.203c.101-.117.178-.246.231-.387.056-.141.093-.283.109-.428.029-.257.005-.453-.072-.586a.402.402 0 0 0-.317-.217.34.34 0 0 0-.267.069.765.765 0 0 0-.177.25 3.414 3.414 0 0 0-.123.355 5.02 5.02 0 0 1-.126.388c-.044.131-.1.248-.166.35a.625.625 0 0 1-.64.303.7.7 0 0 1-.419-.19.906.906 0 0 1-.238-.434 1.826 1.826 0 0 1-.026-.647zm1.97 4.049a1.31 1.31 0 0 1-.356.518.937.937 0 0 1-.531.236c-.208.027-.44-.011-.698-.114l-1.55-.62.145-.36 1.515.606c.281.112.522.126.721.041.202-.081.353-.248.456-.502.076-.19.104-.371.083-.544a.839.839 0 0 0-.2-.457 1.188 1.188 0 0 0-.473-.319l-1.403-.561.145-.361 3.771 1.508-.145.361-1.835-.734.166-.016c.159.162.255.358.289.587.037.231.004.475-.1.732zm-4.158 1.344a1.51 1.51 0 0 1 .619-.463 1.43 1.43 0 0 1 .733-.075c.254.041.491.152.712.331.224.182.38.391.469.628s.113.479.07.727c-.042.248-.152.48-.33.698-.18.22-.388.376-.622.468-.237.094-.48.12-.728.078a1.491 1.491 0 0 1-.712-.331 1.496 1.496 0 0 1-.469-.628 1.373 1.373 0 0 1-.075-.73 1.51 1.51 0 0 1 .334-.702zm.268.217a1.094 1.094 0 0 0-.244.514.999.999 0 0 0 .067.541c.073.182.196.342.369.483.176.143.359.23.549.262a.983.983 0 0 0 .541-.047c.175-.064.328-.176.457-.334s.208-.329.236-.514c.031-.182.011-.362-.059-.542s-.193-.34-.369-.483a1.201 1.201 0 0 0-.549-.262 1.059 1.059 0 0 0-.548.048 1.086 1.086 0 0 0-.449.333zm-2.803 2.079c.207-.137.425-.215.655-.232a1.3 1.3 0 0 1 .678.147c.219.117.416.306.591.567s.273.513.296.756c.025.247-.015.473-.119.678s-.261.378-.471.517a1.44 1.44 0 0 1-.714.252 1.303 1.303 0 0 1-.715-.142 1.52 1.52 0 0 1-.578-.529c-.162-.243-.253-.489-.271-.74s.029-.488.142-.713c.11-.222.279-.409.507-.561zm.66-1.682 2.19 3.27-.31.206-.481-.719-.288-.499-.368-.452L22 23.274l.324-.215zm-.445 1.953c-.17.113-.297.252-.38.417a1.046 1.046 0 0 0-.1.54c.016.195.087.385.21.57s.272.321.444.408c.172.087.352.125.538.115s.365-.072.535-.185c.17-.113.297-.255.381-.424.081-.168.114-.348.1-.54-.017-.19-.088-.377-.212-.562s-.271-.323-.443-.415a1.05 1.05 0 0 0-.538-.115 1.108 1.108 0 0 0-.536.193zm-3.94 4.175c-.231.036-.44.022-.627-.041a.924.924 0 0 1-.473-.337c-.129-.165-.215-.384-.258-.658l-.257-1.65.384-.059.251 1.612c.047.299.157.513.332.641.172.132.393.177.664.136.202-.031.372-.1.511-.206a.833.833 0 0 0 .291-.405c.056-.164.067-.354.033-.57l-.233-1.493.384-.059.442 2.839-.368.057-.121-.779.082.137c-.058.22-.177.402-.358.548-.18.15-.407.246-.681.288zm-3.318-2.88c.274.04.513.138.715.293.198.158.344.355.438.59.094.239.12.499.078.78-.042.285-.142.527-.301.725s-.355.342-.59.433a1.492 1.492 0 0 1-.769.075 1.493 1.493 0 0 1-.72-.294 1.33 1.33 0 0 1-.439-.585 1.485 1.485 0 0 1-.078-.78c.042-.282.142-.523.301-.725a1.37 1.37 0 0 1 .591-.439 1.53 1.53 0 0 1 .775-.074zm-.05.341a1.101 1.101 0 0 0-.567.055 1.009 1.009 0 0 0-.431.335 1.196 1.196 0 0 0-.227.564c-.033.224-.015.426.054.605a.964.964 0 0 0 .317.439c.145.117.319.191.521.22s.39.009.562-.061c.172-.067.318-.177.436-.329s.194-.34.227-.564c.033-.22.014-.422-.054-.605a1.046 1.046 0 0 0-.321-.446 1.075 1.075 0 0 0-.516-.214zm-2.346-.831-.419 3.04-.327-.177.407-2.81.149.081-2.164 1.86-.294-.159.392-2.818.149.081-2.155 1.866-.313-.169 2.331-2.007.323.174-.35 2.66-.101-.055 2.05-1.742.323.174zm-4.599-3.622c.139.192.244.393.315.603.068.212.096.396.083.554l-.352.037a1.686 1.686 0 0 0-.077-.498 1.78 1.78 0 0 0-.262-.52c-.16-.222-.31-.357-.449-.405a.41.41 0 0 0-.386.055.305.305 0 0 0-.139.228.604.604 0 0 0 .043.293c.038.108.087.223.148.345s.12.246.175.373c.053.123.09.246.11.366a.747.747 0 0 1-.034.355.697.697 0 0 1-.262.31c-.127.092-.267.138-.419.14s-.305-.045-.46-.141a1.594 1.594 0 0 1-.455-.441 2.076 2.076 0 0 1-.265-.497 1.463 1.463 0 0 1-.114-.484l.353-.045c.004.155.034.302.09.441.053.142.122.272.208.39.152.21.301.338.448.386a.404.404 0 0 0 .381-.052.337.337 0 0 0 .151-.23.759.759 0 0 0-.037-.304 3.283 3.283 0 0 0-.148-.345 5.163 5.163 0 0 1-.168-.372 1.525 1.525 0 0 1-.113-.371.62.62 0 0 1 .271-.653.698.698 0 0 1 .439-.14.916.916 0 0 1 .469.162c.156.104.308.257.456.461zm-4.188-1.667a1.306 1.306 0 0 1-.085-.622.924.924 0 0 1 .235-.53c.135-.159.333-.287.593-.383l1.566-.579.136.364-1.53.566c-.284.105-.471.256-.562.453-.095.195-.095.42.001.677.071.192.173.345.305.459a.846.846 0 0 0 .456.205c.172.022.36-.005.566-.081l1.417-.524.136.364-3.809 1.409-.136-.364 1.853-.685-.112.123a1.037 1.037 0 0 1-.61-.241 1.369 1.369 0 0 1-.42-.609zm2.167-3.77c.015.277-.033.53-.145.759a1.414 1.414 0 0 1-.491.547 1.49 1.49 0 0 1-.749.232c-.288.016-.545-.035-.77-.15s-.406-.28-.542-.492a1.49 1.49 0 0 1-.226-.739 1.509 1.509 0 0 1 .145-.764c.112-.229.274-.411.486-.547.212-.139.462-.217.749-.232a1.51 1.51 0 0 1 .77.15c.225.112.408.276.547.491.136.216.212.464.227.744zm-.345.019a1.097 1.097 0 0 0-.167-.545 1.003 1.003 0 0 0-.414-.356 1.195 1.195 0 0 0-.598-.11 1.18 1.18 0 0 0-.583.174.971.971 0 0 0-.368.398c-.086.165-.124.35-.112.554s.068.384.172.539c.1.155.236.276.409.362s.372.122.598.11c.222-.012.416-.07.583-.174.162-.104.287-.238.373-.404.082-.165.118-.348.107-.548zm.667-3.427c-.061.241-.17.445-.329.612a1.292 1.292 0 0 1-.601.346c-.241.06-.514.052-.818-.024s-.547-.197-.727-.362c-.184-.166-.306-.361-.367-.583s-.06-.455.001-.699c.067-.265.187-.488.359-.666a1.29 1.29 0 0 1 .625-.374c.243-.067.504-.066.784.004.283.071.516.193.698.366s.307.381.374.624c.068.239.068.491.002.756zm.642 1.689-3.818-.954.091-.361.839.21.548.177.576.088 1.859.464-.095.377zm-.983-1.746c.05-.198.05-.386.001-.564a1.042 1.042 0 0 0-.289-.467c-.143-.134-.323-.227-.539-.281s-.417-.055-.603-.004a1.043 1.043 0 0 0-.748.772c-.05.198-.049.388.003.571.053.179.149.334.289.467.141.129.319.221.535.275s.418.058.607.011c.186-.051.345-.143.476-.276.129-.137.218-.305.268-.503zm.098-5.716c.147-.181.311-.311.493-.39a.932.932 0 0 1 .577-.069c.206.035.418.14.634.314l1.3 1.048-.245.302-1.27-1.024c-.236-.19-.462-.274-.678-.251-.216.018-.411.133-.583.345a1.094 1.094 0 0 0-.24.496.84.84 0 0 0 .056.495c.069.159.188.306.359.444l1.176.948-.245.302L4.78 8.735l.234-.289.614.495-.153-.046a1.027 1.027 0 0 1-.103-.646c.033-.231.136-.455.311-.67zm4.35-.066a1.52 1.52 0 0 1-.727.263 1.434 1.434 0 0 1-.723-.141 1.497 1.497 0 0 1-.585-.524c-.161-.239-.25-.485-.267-.737s.032-.491.144-.716c.112-.225.285-.415.519-.572.236-.159.48-.247.731-.267.254-.021.494.024.72.137.229.11.424.285.585.524.159.236.248.482.267.737.019.251-.027.491-.141.721-.115.227-.29.419-.523.575zm-.193-.285c.173-.116.3-.256.383-.421.08-.168.111-.347.093-.537a1.19 1.19 0 0 0-.213-.569 1.188 1.188 0 0 0-.449-.411.975.975 0 0 0-.531-.112 1.06 1.06 0 0 0-.534.187 1.051 1.051 0 0 0-.476.959c.015.192.086.382.213.569.125.184.274.321.449.411.173.086.352.124.539.113.184-.014.36-.077.527-.188zm2.343-.991L10.45 3.699l.362-.087L12.4 5.97l-.165.04.354-2.828.325-.079 1.604 2.355-.165.04.343-2.826.346-.084-.379 3.048-.356.086-1.529-2.209.112-.027-.349 2.664-.356.086zm5.834-.402a2.296 2.296 0 0 1-.638-.237 1.477 1.477 0 0 1-.433-.356l.236-.263a1.73 1.73 0 0 0 .933.53c.268.057.469.057.605.001a.407.407 0 0 0 .249-.299.305.305 0 0 0-.05-.263.605.605 0 0 0-.228-.189c-.1-.055-.214-.107-.341-.157s-.254-.103-.38-.16a1.558 1.558 0 0 1-.327-.199.754.754 0 0 1-.213-.286.692.692 0 0 1-.013-.406c.033-.153.105-.282.217-.385s.257-.171.436-.203c.183-.035.394-.028.633.023.182.039.359.103.53.192.172.085.308.18.409.283l-.232.27a1.257 1.257 0 0 0-.362-.268 1.61 1.61 0 0 0-.416-.15c-.253-.054-.45-.05-.591.014a.401.401 0 0 0-.248.294.337.337 0 0 0 .042.272.769.769 0 0 0 .231.201c.104.056.217.108.341.157.127.05.252.104.373.164.126.057.237.123.332.2a.615.615 0 0 1 .237.667.696.696 0 0 1-.231.398.908.908 0 0 1-.456.194 1.816 1.816 0 0 1-.647-.038zm4.27-1.56c.207.108.367.243.48.405.118.16.178.344.181.551.006.209-.056.436-.185.682l-.776 1.478-.345-.18.758-1.444c.141-.268.179-.506.114-.712-.06-.208-.211-.375-.454-.502a1.098 1.098 0 0 0-.534-.136.85.85 0 0 0-.476.153 1.192 1.192 0 0 0-.366.439l-.702 1.338-.345-.18 1.887-3.596.345.18-.918 1.75.001-.166c.178-.142.382-.218.615-.229.234-.014.474.043.72.172zm.938 4.255a1.517 1.517 0 0 1-.402-.659 1.427 1.427 0 0 1-.003-.734c.066-.248.2-.472.401-.674.203-.204.428-.339.673-.404s.49-.065.733.001.465.198.664.396c.202.2.338.421.406.663.071.245.073.488.007.73-.064.245-.197.47-.401.674a1.502 1.502 0 0 1-.673.404 1.376 1.376 0 0 1-.737.003 1.53 1.53 0 0 1-.668-.399zm.244-.245c.148.146.311.244.49.292.181.046.363.041.547-.014.188-.055.361-.161.518-.319.16-.16.265-.333.316-.519a.958.958 0 0 0 .006-.541c-.047-.18-.143-.342-.289-.486s-.308-.238-.489-.284c-.179-.048-.361-.046-.547.006s-.359.158-.518.319a1.206 1.206 0 0 0-.316.519 1.044 1.044 0 0 0-.006.549c.05.178.146.337.289.478zm1.788 2.936a1.347 1.347 0 0 1-.17-.673c.008-.232.078-.452.211-.659.138-.206.345-.383.621-.531s.538-.222.783-.22c.248-.001.47.061.665.184s.352.296.472.517c.13.241.191.485.184.734-.002.25-.072.482-.209.696a1.508 1.508 0 0 1-.582.523c-.257.138-.512.204-.764.198s-.484-.076-.698-.21a1.443 1.443 0 0 1-.512-.558zm-1.616-.817 3.469-1.858.177.328-.762.408-.525.238-.486.322-1.689.904-.184-.342zm1.907.631c.097.18.224.319.38.417.16.097.336.147.529.151.196.003.392-.049.589-.154s.346-.239.449-.402c.103-.163.158-.337.166-.523s-.037-.369-.134-.549a1.043 1.043 0 0 0-.917-.57c-.191-.001-.385.051-.581.156s-.348.238-.456.4a1.047 1.047 0 0 0-.166.523 1.11 1.11 0 0 0 .142.551z"/></symbol><symbol id="icon-company-logo" viewBox="0 0 32 32"><path d="M13.081 28.274v-4.068l-.105-.666v-6.803c0-1.566-.444-2.77-1.333-3.612-.865-.842-2.163-1.262-3.893-1.262-1.192 0-2.326.199-3.402.596s-1.987.924-2.735 1.578L.491 12.178c.935-.795 2.057-1.403 3.367-1.824a12.797 12.797 0 0 1 4.138-.666c2.385 0 4.22.596 5.506 1.789 1.309 1.169 1.964 2.957 1.964 5.365v11.432h-2.385zm-6.348.175c-1.379 0-2.583-.222-3.612-.666-1.005-.468-1.777-1.099-2.315-1.894-.538-.818-.807-1.753-.807-2.805 0-.959.222-1.824.666-2.595.468-.795 1.216-1.426 2.244-1.894 1.052-.491 2.455-.736 4.208-.736h6.347v1.859H7.187c-1.777 0-3.016.316-3.717.947-.678.631-1.017 1.414-1.017 2.35 0 1.052.409 1.894 1.227 2.525s1.964.947 3.437.947c1.403 0 2.607-.316 3.612-.947 1.029-.655 1.777-1.59 2.244-2.805l.561 1.718c-.468 1.216-1.286 2.186-2.455 2.911-1.146.725-2.595 1.087-4.348 1.087z"/><path d="M23.39 28.449c-1.917 0-3.6-.397-5.05-1.192-1.45-.818-2.583-1.929-3.402-3.332-.818-1.426-1.227-3.051-1.227-4.875s.386-3.437 1.157-4.839c.795-1.403 1.87-2.502 3.226-3.296 1.379-.818 2.922-1.227 4.629-1.227 1.73 0 3.261.397 4.594 1.192 1.356.771 2.42 1.87 3.191 3.296.771 1.403 1.157 3.028 1.157 4.875 0 .117-.012.245-.035.386v.386H15.604v-1.859h14.694l-.982.736c0-1.333-.292-2.513-.877-3.542-.561-1.052-1.333-1.87-2.315-2.455s-2.116-.877-3.402-.877c-1.262 0-2.396.292-3.402.877s-1.788 1.403-2.35 2.455c-.561 1.052-.842 2.256-.842 3.612v.386c0 1.403.304 2.642.912 3.717a6.811 6.811 0 0 0 2.595 2.49c1.122.584 2.396.877 3.822.877 1.122 0 2.163-.199 3.121-.596a6.479 6.479 0 0 0 2.525-1.824l1.403 1.613c-.818.982-1.847 1.73-3.086 2.244-1.216.514-2.56.771-4.033.771zm6.243-22.531H17.359v-2.63h12.274v2.63z"/></symbol><symbol id="icon-tel" viewBox="0 0 32 32"><path d="m29.276 6.061-3.873-3.869a2.5 2.5 0 0 0-3.55 0l-4.171 4.163a2.509 2.509 0 0 0 0 3.556l3.258 3.261a14.754 14.754 0 0 1-3.142 4.629 14.78 14.78 0 0 1-4.625 3.149l-3.258-3.261a2.5 2.5 0 0 0-1.775-.738 2.482 2.482 0 0 0-1.775.738L2.19 21.852a2.509 2.509 0 0 0 0 3.556l3.869 3.869a4.355 4.355 0 0 0 3.062 1.269c.236 0 .465-.018.698-.058 4.814-.793 9.593-3.356 13.451-7.21 3.855-3.861 6.415-8.639 7.215-13.456a4.335 4.335 0 0 0-1.211-3.76zm-1.367 3.327c-.709 4.287-3.015 8.563-6.487 12.035S13.676 27.2 9.389 27.909a1.711 1.711 0 0 1-1.484-.48l-3.8-3.8 4.029-4.032 4.389 4.396.785-.291A17.504 17.504 0 0 0 23.697 13.31l.291-.785-4.393-4.389 4.029-4.032 3.8 3.8a1.7 1.7 0 0 1 .484 1.483z"/></symbol><symbol id="icon-confirmation-logo" viewBox="0 0 32 32"><path d="M0 16C0 7.162 7.162 0 16 0s16 7.162 16 16c0 8.837-7.163 16-16 16S0 24.837 0 16zm23.237-2.762c.681-.681.681-1.794 0-2.475s-1.794-.681-2.475 0l-6.763 6.762-2.763-2.762c-.681-.681-1.794-.681-2.475 0s-.681 1.794 0 2.475l4 4a1.755 1.755 0 0 0 2.475 0l8-8z"/></symbol><symbol id="icon-close-icon" viewBox="0 0 32 32"><path stroke-linecap="round" stroke-linejoin="round" stroke-width="2.667" d="M24 8 8 24M8 8l16 16"/></symbol><svg id="icon-hero-store-d" fill="none" xmlns="http://www.w3.org/2000/svg"><path d="M57.47 98.152a1 1 0 1 0 1.06 1.696l-1.06-1.696Zm52.387-30.722a1 1 0 0 0-.749-1.2l-8.769-2.024a1 1 0 0 0-.45 1.949l7.795 1.8-1.8 7.794a1 1 0 1 0 1.949.45l2.024-8.77ZM58.53 99.848l50.883-31.795-1.06-1.696L57.47 98.152l1.06 1.696ZM148.689 88.803c.045-.778.195-1.509.451-2.191.268-.682.581-1.21.94-1.587l.973.634c-.31.366-.59.843-.841 1.43a5.835 5.835 0 0 0-.414 1.869c-.052.898.048 1.553.3 1.964.265.412.631.632 1.098.659.348.02.624-.078.829-.295.216-.203.382-.482.499-.836.128-.353.242-.75.339-1.188.098-.44.207-.878.329-1.316.121-.425.281-.813.482-1.162.212-.348.487-.627.824-.836.336-.196.773-.28 1.312-.248.515.03.968.2 1.359.511.39.312.684.75.879 1.314.207.576.288 1.266.241 2.069a6.898 6.898 0 0 1-.358 1.818c-.191.602-.43 1.093-.716 1.473l-.992-.616c.312-.403.541-.84.689-1.312.159-.472.253-.947.281-1.427.049-.85-.064-1.488-.34-1.912-.265-.412-.625-.632-1.08-.658-.359-.02-.647.07-.863.275a2.47 2.47 0 0 0-.536.852c-.13.365-.243.761-.34 1.188-.097.44-.212.871-.345 1.296a5.137 5.137 0 0 1-.483 1.18c-.19.362-.452.641-.788.838-.325.21-.745.3-1.26.27-.551-.032-1.021-.215-1.41-.55-.378-.323-.664-.784-.858-1.384-.182-.588-.249-1.295-.201-2.122ZM156.709 101.14c-.161.75-.449 1.376-.863 1.876a3.056 3.056 0 0 1-1.589 1.058c-.658.203-1.432.209-2.324.017l-5.368-1.151.269-1.25 5.244 1.125c.974.209 1.76.12 2.359-.267.608-.373 1.006-.999 1.195-1.879.141-.657.129-1.26-.035-1.811a2.783 2.783 0 0 0-.902-1.372c-.438-.364-1.008-.622-1.712-.773l-4.858-1.042.269-1.25 13.058 2.802-.268 1.25-6.353-1.363.528-.145a3.39 3.39 0 0 1 1.264 1.744c.249.729.277 1.539.086 2.431ZM144.038 109.692c.346-.844.846-1.528 1.501-2.05a4.682 4.682 0 0 1 2.231-.934c.837-.111 1.688.011 2.554.366.877.359 1.569.87 2.076 1.531.507.662.813 1.403.918 2.224.104.821-.019 1.659-.369 2.514-.355.866-.858 1.555-1.509 2.066a4.375 4.375 0 0 1-2.214.941c-.825.116-1.677-.006-2.554-.366-.866-.355-1.558-.865-2.076-1.531a4.497 4.497 0 0 1-.934-2.231c-.1-.832.025-1.675.376-2.53Zm1.049.43c-.259.632-.35 1.25-.273 1.852.088.607.331 1.154.728 1.641.404.502.944.893 1.621 1.17.689.282 1.348.384 1.977.304a3.179 3.179 0 0 0 1.653-.665c.489-.37.861-.866 1.116-1.488.255-.621.338-1.236.25-1.843a3.317 3.317 0 0 0-.705-1.65c-.392-.498-.933-.888-1.621-1.17-.678-.278-1.336-.379-1.977-.304a3.44 3.44 0 0 0-1.677.674 3.54 3.54 0 0 0-1.092 1.479ZM138.584 120.298c.435-.69.987-1.214 1.654-1.574a4.247 4.247 0 0 1 2.23-.465c.814.059 1.658.364 2.53.915.873.551 1.506 1.177 1.9 1.88.404.709.587 1.442.549 2.198-.037.757-.277 1.485-.719 2.186-.48.761-1.082 1.332-1.805 1.713a4.261 4.261 0 0 1-2.334.528c-.827-.04-1.641-.312-2.443-.818-.812-.513-1.413-1.133-1.804-1.863a4.41 4.41 0 0 1-.528-2.333c.033-.817.29-1.606.77-2.367Zm-.273-5.94 10.945 6.907-.654 1.035-2.405-1.518-1.531-1.115-1.71-.866-5.328-3.362.683-1.081Zm1.28 6.47c-.359.568-.552 1.155-.58 1.762a3.443 3.443 0 0 0 .423 1.757c.311.565.775 1.042 1.394 1.433.62.391 1.246.601 1.879.632a3.442 3.442 0 0 0 1.769-.374c.545-.28.998-.704 1.356-1.272a3.57 3.57 0 0 0 .575-1.787 3.432 3.432 0 0 0-.424-1.757c-.306-.549-.769-1.018-1.388-1.409-.619-.39-1.247-.609-1.884-.657a3.45 3.45 0 0 0-1.769.374 3.682 3.682 0 0 0-1.351 1.298ZM134.814 139.885c-.557.529-1.147.884-1.772 1.063a3.063 3.063 0 0 1-1.909-.023c-.657-.204-1.299-.636-1.928-1.297l-3.782-3.979.926-.88 3.696 3.887c.686.722 1.385 1.092 2.098 1.11.712.036 1.394-.257 2.047-.877.487-.463.818-.968.993-1.515.175-.53.185-1.077.029-1.642-.155-.547-.481-1.081-.977-1.603l-3.423-3.601.926-.88 6.511 6.849-.887.843-1.786-1.878.478.215a3.39 3.39 0 0 1 .06 2.154c-.206.741-.639 1.426-1.3 2.054ZM119.632 139.736c.759-.507 1.556-.793 2.391-.861a4.687 4.687 0 0 1 2.372.473c.756.376 1.393.953 1.913 1.731.527.789.815 1.599.866 2.431a4.543 4.543 0 0 1-.483 2.356c-.372.739-.943 1.365-1.711 1.878-.779.52-1.581.81-2.406.871a4.378 4.378 0 0 1-2.362-.458c-.749-.366-1.387-.943-1.913-1.731-.52-.779-.809-1.589-.866-2.431a4.498 4.498 0 0 1 .473-2.371c.382-.746.958-1.375 1.726-1.888Zm.63.943c-.569.379-.99.841-1.262 1.383a3.311 3.311 0 0 0-.314 1.768c.054.642.284 1.267.691 1.876.413.619.902 1.071 1.468 1.357a3.178 3.178 0 0 0 1.743.373c.612-.033 1.198-.237 1.757-.61.559-.373.971-.836 1.237-1.388.273-.543.386-1.13.338-1.763-.047-.632-.277-1.257-.69-1.876-.406-.609-.896-1.061-1.469-1.357a3.435 3.435 0 0 0-1.767-.378 3.53 3.53 0 0 0-1.732.615ZM112.033 144.379l6.909 7.367-1.13.468-6.349-6.859.516-.213.278 9.373-1.014.42-6.399-6.838.516-.214.311 9.359-1.081.448-.307-10.101 1.114-.462 6.082 6.404-.349.145-.211-8.835 1.114-.462ZM92.847 150.134a7.427 7.427 0 0 1 2.238-.003c.721.124 1.303.324 1.743.598l-.422 1.082c-.422-.229-.946-.407-1.57-.533a5.82 5.82 0 0 0-1.915-.027c-.89.131-1.512.362-1.863.693-.35.342-.49.745-.423 1.208.051.345.203.595.457.752.243.17.55.276.92.319.372.054.783.085 1.233.091.45.007.901.025 1.354.055.442.032.854.111 1.236.237.384.137.713.349.986.637.26.289.43.7.51 1.235.074.51 0 .988-.226 1.434-.226.445-.595.821-1.108 1.127-.522.32-1.182.538-1.977.656a6.917 6.917 0 0 1-1.853.018c-.628-.065-1.158-.199-1.588-.403l.403-1.096c.457.224.932.36 1.424.408.494.061.979.056 1.454-.014.843-.124 1.444-.364 1.804-.72.35-.343.491-.74.425-1.191-.053-.356-.2-.619-.444-.79a2.486 2.486 0 0 0-.944-.352 10.417 10.417 0 0 0-1.232-.091c-.45-.007-.896-.032-1.34-.076a5.11 5.11 0 0 1-1.253-.233 2.049 2.049 0 0 1-.98-.602c-.271-.275-.444-.668-.52-1.179-.08-.546.004-1.044.253-1.493.24-.435.633-.809 1.182-1.12.538-.298 1.217-.507 2.036-.627ZM82.194 160.489c-.769-.006-1.44-.161-2.013-.465a3.057 3.057 0 0 1-1.358-1.343c-.331-.602-.493-1.36-.486-2.272l.042-5.489 1.278.009-.041 5.364c-.008.996.238 1.748.738 2.256.488.52 1.182.783 2.082.79.672.005 1.261-.128 1.767-.4.495-.26.882-.648 1.162-1.161.267-.502.404-1.113.41-1.833l.038-4.968 1.278.01-.103 13.355-1.278-.01.05-6.497.248.488a3.387 3.387 0 0 1-1.452 1.59c-.663.391-1.45.583-2.362.576ZM71.378 149.841c.897.164 1.669.512 2.316 1.045a4.676 4.676 0 0 1 1.374 1.99c.282.795.338 1.653.17 2.574-.17.933-.527 1.715-1.07 2.348a4.538 4.538 0 0 1-1.986 1.357c-.782.272-1.627.325-2.536.159-.92-.169-1.699-.518-2.334-1.049a4.372 4.372 0 0 1-1.377-1.972c-.284-.784-.34-1.642-.17-2.574.168-.921.525-1.704 1.07-2.348a4.504 4.504 0 0 1 1.99-1.375c.793-.27 1.644-.321 2.553-.155Zm-.204 1.115c-.673-.123-1.296-.084-1.87.116a3.31 3.31 0 0 0-1.454 1.051c-.409.499-.679 1.109-.81 1.829-.134.731-.097 1.397.11 1.996a3.19 3.19 0 0 0 .992 1.481c.464.401 1.026.663 1.687.784.66.12 1.28.075 1.855-.137a3.307 3.307 0 0 0 1.469-1.031c.406-.487.676-1.096.81-1.828.132-.72.095-1.385-.11-1.996a3.443 3.443 0 0 0-1.007-1.502 3.547 3.547 0 0 0-1.672-.763ZM59.882 146.687c.765.284 1.392.715 1.882 1.293.485.59.79 1.285.915 2.087.11.808-.015 1.696-.374 2.664-.36.967-.842 1.716-1.448 2.247-.61.541-1.29.871-2.038.991-.748.119-1.51.035-2.287-.253-.844-.313-1.527-.784-2.048-1.413a4.246 4.246 0 0 1-.998-2.175c-.132-.816-.034-1.669.296-2.558.334-.9.818-1.617 1.45-2.15a4.41 4.41 0 0 1 2.175-.998c.806-.136 1.63-.048 2.475.265Zm5.757-1.493-4.502 12.134-1.148-.426.99-2.666.775-1.729.495-1.851 2.191-5.907 1.199.445Zm-6.067 2.588c-.63-.234-1.245-.302-1.845-.205a3.442 3.442 0 0 0-1.632.777c-.488.421-.86.974-1.115 1.66-.254.687-.331 1.343-.23 1.969.1.626.343 1.177.73 1.653.386.476.895.831 1.525 1.065.63.233 1.252.298 1.867.193a3.443 3.443 0 0 0 1.632-.777c.474-.413.837-.963 1.092-1.649.255-.686.34-1.346.254-1.979a3.439 3.439 0 0 0-.73-1.653 3.673 3.673 0 0 0-1.548-1.054ZM39.928 146.989c-.631-.438-1.098-.945-1.4-1.52a3.055 3.055 0 0 1-.364-1.874c.067-.684.36-1.401.88-2.15l3.132-4.509 1.05.729-3.06 4.405c-.568.818-.79 1.578-.663 2.279.11.705.535 1.314 1.274 1.827.552.383 1.114.605 1.685.666a2.781 2.781 0 0 0 1.614-.304c.504-.263.962-.691 1.373-1.282l2.833-4.081 1.05.729-5.39 7.762-1.006-.698 1.479-2.129-.115.512a3.39 3.39 0 0 1-2.096.495c-.769-.051-1.527-.337-2.276-.857ZM37.014 132.119c.65.64 1.092 1.362 1.327 2.166.218.805.224 1.611.018 2.418-.215.816-.65 1.558-1.308 2.224-.665.676-1.4 1.122-2.205 1.34a4.537 4.537 0 0 1-2.406.005c-.799-.215-1.528-.647-2.186-1.295-.667-.657-1.113-1.384-1.34-2.18a4.371 4.371 0 0 1-.03-2.405c.207-.807.642-1.549 1.308-2.224.657-.666 1.392-1.113 2.205-1.34a4.502 4.502 0 0 1 2.419-.017c.807.223 1.54.659 2.198 1.308Zm-.796.807c-.487-.48-1.024-.798-1.61-.955a3.3 3.3 0 0 0-1.795.051c-.618.182-1.184.534-1.698 1.056-.522.53-.866 1.101-1.031 1.713a3.184 3.184 0 0 0-.013 1.782c.157.592.475 1.125.954 1.596.479.472 1.015.782 1.61.93a3.309 3.309 0 0 0 1.795-.025c.61-.174 1.176-.526 1.698-1.056.514-.522.858-1.093 1.032-1.713.165-.612.169-1.215.012-1.808a3.542 3.542 0 0 0-.954-1.571ZM30.942 125.662l-5.79 8.275-.691-1.01 5.408-7.622.315.461-9.116 2.198-.62-.907 5.378-7.665.315.46-9.096 2.228-.66-.966 9.823-2.376.68.996-5.018 7.267-.213-.312 8.604-2.022.68.995ZM21.352 108.085a7.42 7.42 0 0 1 .466 2.188c.028.732-.046 1.342-.223 1.83l-1.146-.19c.137-.46.202-1.009.196-1.646a5.83 5.83 0 0 0-.37-1.879c-.314-.843-.669-1.403-1.065-1.678-.408-.271-.831-.326-1.27-.163-.326.121-.54.322-.64.602-.117.274-.157.596-.122.967.024.375.08.783.166 1.225.087.441.163.886.227 1.336.06.438.07.858.025 1.258a2.502 2.502 0 0 1-.418 1.096c-.229.315-.597.567-1.103.754-.484.18-.967.205-1.45.077-.482-.128-.927-.411-1.332-.849-.421-.446-.772-1.045-1.052-1.799a6.913 6.913 0 0 1-.402-1.809c-.066-.628-.045-1.174.065-1.637l1.156.167a4.15 4.15 0 0 0-.104 1.478c.043.496.148.969.315 1.419.296.799.656 1.338 1.08 1.616.407.271.825.327 1.252.169.338-.126.565-.325.68-.598.113-.285.162-.617.15-.996a10.543 10.543 0 0 0-.167-1.225 15.894 15.894 0 0 1-.204-1.326 5.09 5.09 0 0 1-.031-1.274c.028-.408.157-.769.385-1.084.213-.322.562-.573 1.046-.753a2.307 2.307 0 0 1 1.513-.062c.475.144.922.452 1.34.924.403.465.749 1.085 1.037 1.862ZM9.07 100.022c-.152-.752-.138-1.44.041-2.065a3.057 3.057 0 0 1 1.034-1.605c.521-.449 1.229-.763 2.123-.945l5.38-1.09.254 1.253-5.257 1.065c-.976.198-1.661.594-2.055 1.188-.408.584-.523 1.318-.344 2.2.134.658.386 1.207.756 1.646.357.43.815.729 1.376.897.546.159 1.172.167 1.878.024l4.869-.987.254 1.253-13.09 2.652-.254-1.253 6.368-1.29-.426.344a3.395 3.395 0 0 1-1.856-1.094c-.52-.568-.87-1.299-1.05-2.193ZM17.255 87.258c.025.912-.157 1.74-.545 2.482a4.674 4.674 0 0 1-1.663 1.756c-.72.44-1.549.672-2.484.697-.948.026-1.787-.162-2.518-.562a4.538 4.538 0 0 1-1.738-1.664c-.427-.709-.653-1.525-.678-2.448-.025-.936.156-1.77.544-2.5a4.374 4.374 0 0 1 1.646-1.755c.708-.44 1.536-.672 2.484-.697.935-.026 1.775.162 2.518.562a4.5 4.5 0 0 1 1.755 1.663c.428.72.654 1.543.68 2.466Zm-1.133.031c-.019-.684-.185-1.285-.5-1.805a3.31 3.31 0 0 0-1.328-1.207c-.573-.296-1.225-.435-1.956-.415-.744.02-1.388.194-1.93.52-.545.315-.96.74-1.245 1.276-.298.537-.437 1.14-.42 1.813.02.671.191 1.267.517 1.786.315.52.752.928 1.312 1.225.56.297 1.212.436 1.956.415.732-.02 1.375-.193 1.93-.52a3.44 3.44 0 0 0 1.262-1.294c.286-.536.42-1.134.402-1.794ZM17.95 75.266c-.119.807-.41 1.51-.875 2.11a4.25 4.25 0 0 1-1.852 1.328c-.768.275-1.663.337-2.684.187-1.021-.15-1.854-.467-2.498-.95-.656-.485-1.12-1.08-1.392-1.788-.271-.707-.347-1.47-.226-2.289.132-.89.45-1.656.958-2.297a4.254 4.254 0 0 1 1.921-1.427c.772-.3 1.627-.38 2.565-.242.95.14 1.75.464 2.403.973a4.405 4.405 0 0 1 1.427 1.92c.3.76.385 1.585.254 2.475Zm2.654 5.321L7.8 78.703l.178-1.211 2.814.414 1.852.4 1.914.1 6.232.917-.186 1.264Zm-3.789-5.397c.099-.665.038-1.28-.182-1.846a3.439 3.439 0 0 0-1.098-1.435c-.512-.391-1.13-.64-1.855-.746-.724-.107-1.382-.046-1.974.182-.591.228-1.08.581-1.466 1.058-.386.477-.628 1.048-.726 1.712a3.567 3.567 0 0 0 .198 1.867 3.44 3.44 0 0 0 1.098 1.435c.502.377 1.115.62 1.84.726.724.106 1.387.052 1.989-.162a3.443 3.443 0 0 0 1.466-1.058 3.68 3.68 0 0 0 .71-1.733ZM13.556 55.651c.3-.707.699-1.267 1.2-1.68a3.057 3.057 0 0 1 1.76-.742c.683-.076 1.445.064 2.285.42l5.056 2.138-.498 1.177-4.94-2.09c-.917-.388-1.706-.448-2.367-.18-.667.252-1.176.793-1.526 1.622-.262.619-.364 1.214-.306 1.786.051.556.26 1.061.628 1.516.362.44.874.8 1.537 1.08l4.576 1.935-.498 1.177-8.704-3.68.477-1.128 2.387 1.01-.524-.007a3.39 3.39 0 0 1-.915-1.95c-.107-.763.017-1.563.372-2.404ZM27.506 49.76c-.496.765-1.114 1.344-1.854 1.738a4.675 4.675 0 0 1-2.364.507c-.843-.045-1.657-.321-2.444-.83-.796-.514-1.382-1.143-1.759-1.887a4.539 4.539 0 0 1-.492-2.354c.049-.826.324-1.627.826-2.403.508-.786 1.129-1.37 1.862-1.754a4.375 4.375 0 0 1 2.35-.517c.833.038 1.647.315 2.443.83.786.507 1.372 1.137 1.76 1.887a4.5 4.5 0 0 1 .506 2.364c-.054.836-.333 1.642-.834 2.418Zm-.953-.616c.372-.575.575-1.165.61-1.771a3.309 3.309 0 0 0-.414-1.747c-.305-.568-.764-1.051-1.379-1.448-.625-.404-1.253-.625-1.886-.663a3.185 3.185 0 0 0-1.748.35c-.549.273-1.006.692-1.37 1.256-.366.565-.56 1.153-.585 1.766-.035.606.095 1.19.389 1.752.294.562.753 1.044 1.378 1.448.615.398 1.244.619 1.887.663a3.442 3.442 0 0 0 1.773-.355c.538-.28.987-.697 1.345-1.252ZM32.563 42.507l-9.277-3.994.85-.881 8.559 3.752-.387.402-4-8.482.763-.79 8.597 3.713-.387.402-4.024-8.455.812-.842 4.316 9.137-.837.868-8.134-3.442.263-.272L33.4 41.64l-.837.868ZM47.658 29.606a7.429 7.429 0 0 1-2.045.908c-.71.178-1.323.231-1.837.158l-.051-1.16c.478.04 1.029-.01 1.652-.148a5.83 5.83 0 0 0 1.761-.75c.761-.48 1.236-.942 1.423-1.387.181-.455.147-.88-.103-1.276-.185-.294-.426-.462-.721-.503-.292-.057-.615-.03-.971.081-.362.1-.75.24-1.164.415-.414.176-.834.342-1.261.498-.417.15-.825.244-1.226.284a2.499 2.499 0 0 1-1.159-.184c-.355-.159-.677-.466-.966-.923a2.344 2.344 0 0 1-.374-1.402c.026-.5.211-.992.556-1.48.35-.504.864-.97 1.544-1.4a6.906 6.906 0 0 1 1.687-.766c.6-.195 1.139-.286 1.615-.274l.075 1.165a4.153 4.153 0 0 0-1.468.203 5.408 5.408 0 0 0-1.323.601c-.72.455-1.174.918-1.358 1.39-.182.454-.15.875.093 1.26.192.305.434.485.725.543.302.05.637.03 1.006-.06.372-.107.76-.246 1.164-.415.414-.176.832-.334 1.255-.473.427-.156.84-.254 1.241-.294a2.047 2.047 0 0 1 1.14.154c.36.142.677.431.952.867.295.467.419.956.373 1.468-.043.495-.252.996-.627 1.502-.372.49-.908.956-1.608 1.398ZM53.204 15.804c.705-.305 1.381-.433 2.029-.386a3.057 3.057 0 0 1 1.784.68c.546.418 1 1.046 1.362 1.883l2.177 5.04-1.174.506-2.127-4.924c-.394-.914-.923-1.503-1.586-1.766-.656-.279-1.397-.24-2.223.117-.617.266-1.102.626-1.456 1.08a2.779 2.779 0 0 0-.594 1.53c-.042.567.08 1.182.365 1.843l1.97 4.56-1.174.507-5.295-12.261 1.173-.507 2.576 5.966-.424-.347a3.39 3.39 0 0 1 .687-2.041c.45-.625 1.092-1.119 1.93-1.48ZM67.181 21.228c-.887.212-1.734.204-2.54-.023a4.675 4.675 0 0 1-2.06-1.266c-.58-.615-.977-1.377-1.194-2.288-.22-.922-.21-1.782.032-2.58a4.539 4.539 0 0 1 1.27-2.042c.606-.564 1.358-.954 2.257-1.168.91-.217 1.763-.21 2.558.019a4.374 4.374 0 0 1 2.056 1.249c.576.603.974 1.365 1.194 2.287.217.91.206 1.77-.032 2.58a4.501 4.501 0 0 1-1.267 2.06c-.617.567-1.375.958-2.274 1.172Zm-.263-1.103c.665-.159 1.22-.445 1.664-.86a3.31 3.31 0 0 0 .907-1.549c.173-.62.174-1.287.004-1.999-.173-.724-.475-1.318-.906-1.782a3.184 3.184 0 0 0-1.505-.955c-.586-.181-1.206-.194-1.86-.038-.653.156-1.2.447-1.642.873a3.308 3.308 0 0 0-.929 1.536c-.175.61-.176 1.276-.004 2 .17.711.472 1.306.907 1.782.431.464.94.787 1.526.968.584.17 1.196.177 1.838.024ZM78.809 19.447c-.815.05-1.563-.09-2.245-.42a4.247 4.247 0 0 1-1.681-1.537c-.428-.695-.674-1.558-.738-2.588-.063-1.03.075-1.91.414-2.64.34-.742.826-1.32 1.462-1.732.636-.412 1.367-.643 2.194-.694.898-.056 1.713.098 2.445.462.743.35 1.34.879 1.793 1.584.451.694.707 1.514.765 2.46.06.958-.093 1.809-.455 2.553a4.409 4.409 0 0 1-1.585 1.793c-.681.45-1.471.704-2.37.76Zm-4.66 3.697-.798-12.917 1.222-.076.176 2.839-.01 1.894.298 1.893.388 6.288-1.275.079Zm4.5-4.823c.67-.041 1.26-.228 1.769-.56a3.44 3.44 0 0 0 1.177-1.371c.277-.583.393-1.239.347-1.97-.045-.73-.24-1.361-.585-1.893a3.44 3.44 0 0 0-1.338-1.216c-.546-.279-1.155-.397-1.825-.356a3.567 3.567 0 0 0-1.786.58 3.44 3.44 0 0 0-1.178 1.37c-.265.57-.375 1.22-.33 1.95.045.731.235 1.369.57 1.913a3.44 3.44 0 0 0 1.337 1.216 3.68 3.68 0 0 0 1.842.337ZM97.528 11.084c.754.146 1.385.422 1.893.827.522.395.885.918 1.088 1.568.215.654.236 1.428.061 2.323l-1.049 5.389-1.254-.245 1.025-5.265c.19-.977.086-1.762-.312-2.353-.385-.6-1.018-.986-1.902-1.158-.66-.129-1.263-.106-1.81.069a2.778 2.778 0 0 0-1.355.928c-.355.444-.602 1.02-.74 1.727l-.949 4.876-1.254-.244 1.806-9.276 1.201.234-.495 2.544-.102-.515a3.391 3.391 0 0 1 1.72-1.297c.724-.263 1.533-.307 2.428-.132ZM106.118 23.486c-.851-.327-1.546-.812-2.083-1.455a4.67 4.67 0 0 1-.984-2.209c-.129-.834-.027-1.688.309-2.562.339-.885.834-1.588 1.485-2.11a4.538 4.538 0 0 1 2.202-.967c.819-.123 1.659-.018 2.522.313.874.335 1.574.822 2.1 1.46.537.644.867 1.375.99 2.193.134.823.031 1.677-.309 2.562-.335.873-.83 1.577-1.484 2.11a4.503 4.503 0 0 1-2.21.983c-.829.12-1.675.013-2.538-.318Zm.406-1.059c.639.245 1.258.322 1.859.232a3.31 3.31 0 0 0 1.624-.765c.493-.415.871-.964 1.134-1.648.266-.694.353-1.355.259-1.982a3.185 3.185 0 0 0-.701-1.638c-.381-.48-.886-.841-1.513-1.082-.628-.24-1.244-.31-1.848-.208a3.31 3.31 0 0 0-1.635.742c-.489.403-.867.952-1.133 1.647-.263.683-.349 1.344-.26 1.982.093.627.331 1.181.712 1.662.385.469.886.822 1.502 1.058ZM114.465 27.046l2.03-9.893 1.035.653-1.939 9.142-.472-.298 7.496-5.636.928.586-1.893 9.17-.472-.297 7.465-5.655.989.624-8.073 6.08-1.02-.643 1.721-8.663.32.202-7.095 5.271-1.02-.643ZM130.179 39.244a7.4 7.4 0 0 1-1.304-1.818c-.319-.66-.495-1.248-.528-1.766l1.125-.285c.06.476.22 1.005.481 1.587a5.815 5.815 0 0 0 1.091 1.572c.625.648 1.174 1.019 1.648 1.112.482.085.892-.034 1.229-.36.25-.24.365-.51.345-.808-.003-.297-.095-.608-.275-.934a9.705 9.705 0 0 0-.643-1.055c-.257-.37-.504-.748-.744-1.134a5.153 5.153 0 0 1-.526-1.142 2.494 2.494 0 0 1-.055-1.172c.083-.38.319-.758.708-1.133a2.344 2.344 0 0 1 1.297-.651c.494-.076 1.014.005 1.562.244.564.24 1.125.649 1.683 1.228.425.44.79.939 1.094 1.496.312.549.511 1.057.596 1.526l-1.126.31a4.165 4.165 0 0 0-.497-1.396 5.41 5.41 0 0 0-.857-1.174c-.591-.614-1.137-.963-1.636-1.048-.482-.085-.887.03-1.216.347-.259.25-.387.523-.384.82.012.306.099.63.263.972.18.343.394.695.642 1.056.257.37.496.747.718 1.133.239.386.419.771.539 1.155.138.385.165.767.081 1.148-.066.38-.285.75-.656 1.108-.398.383-.851.604-1.362.662-.493.06-1.026-.044-1.598-.309-.556-.264-1.121-.695-1.695-1.29ZM144.718 41.738c.443.627.708 1.263.794 1.906a3.05 3.05 0 0 1-.3 1.886c-.296.62-.817 1.193-1.563 1.719l-4.486 3.164-.737-1.044 4.384-3.092c.814-.574 1.281-1.212 1.403-1.914.138-.7-.052-1.417-.571-2.153-.388-.549-.839-.95-1.355-1.203-.5-.25-1.04-.338-1.621-.267-.564.075-1.14.32-1.728.735l-4.06 2.863-.737-1.044 10.915-7.697.737 1.044-5.311 3.745.252-.486a3.394 3.394 0 0 1 2.14.253c.704.311 1.318.84 1.844 1.585ZM142.356 56.676c-.389-.825-.556-1.655-.499-2.491.072-.83.344-1.59.816-2.277.482-.692 1.147-1.238 1.993-1.637.858-.405 1.701-.571 2.532-.499.83.073 1.584.347 2.26.824.676.477 1.212 1.133 1.607 1.969.399.846.568 1.682.507 2.507a4.378 4.378 0 0 1-.8 2.269c-.472.687-1.136 1.233-1.994 1.637-.846.4-1.69.566-2.531.499a4.503 4.503 0 0 1-2.277-.816c-.681-.488-1.219-1.15-1.614-1.985Zm1.026-.484c.292.618.686 1.102 1.183 1.452a3.308 3.308 0 0 0 1.702.57c.643.04 1.296-.095 1.958-.407.673-.318 1.192-.736 1.558-1.254.371-.506.58-1.063.625-1.668.057-.61-.058-1.22-.345-1.828-.287-.607-.684-1.083-1.192-1.428a3.308 3.308 0 0 0-1.694-.593c-.632-.047-1.285.089-1.957.407-.662.312-1.182.73-1.558 1.253a3.433 3.433 0 0 0-.634 1.692 3.54 3.54 0 0 0 .354 1.804ZM146.468 67.696c-.216-.787-.233-1.548-.049-2.283a4.24 4.24 0 0 1 1.159-1.961c.592-.562 1.386-.979 2.381-1.253.995-.273 1.885-.319 2.67-.136.796.179 1.461.537 1.994 1.075.534.538.911 1.206 1.13 2.004.239.868.256 1.697.05 2.488a4.25 4.25 0 0 1-1.183 2.08c-.586.584-1.336 1.002-2.25 1.254-.925.254-1.789.28-2.592.078a4.409 4.409 0 0 1-2.08-1.183c-.581-.574-.991-1.295-1.23-2.163Zm-4.574-3.801 12.479-3.432.324 1.18-2.742.754-1.856.38-1.792.68-6.074 1.67-.339-1.232Zm5.644 3.413c.178.648.482 1.187.911 1.617.441.426.969.716 1.584.87.626.152 1.293.13 1.998-.064.706-.194 1.284-.514 1.733-.962.45-.447.755-.966.916-1.558.16-.592.152-1.212-.027-1.86a3.566 3.566 0 0 0-.933-1.629 3.443 3.443 0 0 0-1.584-.87c-.612-.143-1.27-.118-1.976.076s-1.291.51-1.755.95c-.45.447-.755.966-.916 1.558-.146.6-.13 1.224.049 1.872Z" fill="#000"/></svg><svg id="icon-hero-store-t" fill="none" width="146" height="150" viewBox="0 0 146 150" xmlns="http://www.w3.org/2000/svg"><path d="M99.91 64.065a1 1 0 0 0-.83-1.144l-8.89-1.408a1 1 0 1 0-.313 1.975l7.902 1.252-1.252 7.901a1 1 0 0 0 1.976.313l1.408-8.89ZM52.589 98.809 99.51 64.718l-1.176-1.619-46.923 34.092 1.176 1.618ZM132.663 78.758a7.429 7.429 0 0 1 .469-2.188c.273-.68.59-1.206.951-1.579l.969.64c-.313.365-.597.84-.852 1.424a5.82 5.82 0 0 0-.429 1.866c-.059.898.036 1.554.286 1.967.261.414.625.636 1.092.667.347.023.624-.073.831-.288.218-.203.386-.48.506-.833.131-.352.247-.747.348-1.186.101-.438.214-.876.339-1.312.124-.425.288-.811.491-1.159a2.5 2.5 0 0 1 .83-.83c.338-.194.776-.273 1.315-.238.515.034.966.208 1.354.522.389.314.678.754.87 1.32.202.578.277 1.269.224 2.071a6.895 6.895 0 0 1-.372 1.816c-.195.6-.438 1.09-.727 1.467l-.988-.624c.315-.4.548-.836.7-1.307.163-.47.26-.945.292-1.424.056-.85-.053-1.488-.325-1.915-.262-.414-.62-.636-1.075-.666-.359-.023-.648.066-.866.268a2.483 2.483 0 0 0-.542.848c-.132.364-.249.76-.349 1.186-.101.438-.219.87-.355 1.293a5.064 5.064 0 0 1-.493 1.177c-.192.36-.456.637-.794.832-.326.207-.747.293-1.262.26-.551-.037-1.019-.224-1.406-.562-.375-.325-.658-.789-.847-1.39-.177-.59-.239-1.297-.185-2.123ZM140.469 91.172c-.181.746-.485 1.364-.913 1.853a3.061 3.061 0 0 1-1.617 1.015c-.663.185-1.437.17-2.323-.044l-5.336-1.294.302-1.242 5.213 1.264c.968.235 1.756.167 2.365-.204.617-.357 1.032-.972 1.245-1.847.158-.653.163-1.257.014-1.812a2.783 2.783 0 0 0-.865-1.395c-.428-.375-.991-.647-1.691-.817l-4.828-1.17.301-1.242 12.98 3.146-.301 1.242-6.315-1.53.531-.131c.594.452 1 1.045 1.217 1.776.23.735.236 1.546.021 2.432ZM127.507 99.196c.387-.826.92-1.484 1.6-1.974a4.682 4.682 0 0 1 2.274-.825c.841-.071 1.686.092 2.534.488.859.401 1.525.944 2 1.63.474.685.743 1.44.808 2.265.064.824-.1 1.655-.491 2.492-.397.848-.933 1.511-1.608 1.991-.68.49-1.432.768-2.258.832-.83.076-1.675-.087-2.533-.488-.848-.396-1.515-.94-2-1.63a4.498 4.498 0 0 1-.825-2.272c-.059-.836.107-1.672.499-2.51Zm1.027.48c-.29.619-.411 1.232-.363 1.837.059.61.275 1.168.648 1.673.379.522.9.937 1.563 1.247.674.315 1.327.448 1.96.399a3.19 3.19 0 0 0 1.684-.584c.506-.346.902-.823 1.187-1.432.285-.609.398-1.218.339-1.828a3.302 3.302 0 0 0-.624-1.683c-.367-.516-.888-.931-1.563-1.246-.663-.31-1.316-.443-1.959-.4a3.44 3.44 0 0 0-1.708.593 3.545 3.545 0 0 0-1.164 1.424ZM121.499 109.341c.483-.658 1.069-1.143 1.76-1.456a4.254 4.254 0 0 1 2.258-.309c.808.116 1.629.478 2.461 1.088.833.61 1.421 1.279 1.765 2.007.354.735.486 1.478.395 2.23-.09.752-.38 1.462-.87 2.129-.532.726-1.172 1.254-1.92 1.584a4.258 4.258 0 0 1-2.366.364c-.823-.096-1.616-.425-2.381-.985-.775-.567-1.332-1.228-1.671-1.982a4.398 4.398 0 0 1-.364-2.364c.089-.812.4-1.581.933-2.306Zm.141-5.943 10.441 7.646-.724.987-2.294-1.68-1.451-1.219-1.646-.982-5.082-3.722.756-1.03Zm.827 6.54c-.398.542-.631 1.114-.702 1.717-.06.61.04 1.204.3 1.782.271.585.701 1.093 1.292 1.526.591.432 1.201.686 1.831.76a3.434 3.434 0 0 0 1.791-.25c.564-.241 1.045-.633 1.442-1.175.398-.541.63-1.122.698-1.742a3.437 3.437 0 0 0-.3-1.781c-.268-.568-.697-1.069-1.288-1.501-.591-.433-1.202-.695-1.835-.786a3.446 3.446 0 0 0-1.791.25 3.677 3.677 0 0 0-1.438 1.2ZM116.062 128.492c-.608.47-1.231.762-1.871.876a3.055 3.055 0 0 1-1.898-.217c-.633-.269-1.228-.764-1.787-1.485l-3.359-4.342 1.011-.782 3.283 4.243c.609.787 1.268 1.227 1.975 1.317.705.107 1.414-.114 2.126-.664.532-.411.913-.879 1.143-1.406a2.774 2.774 0 0 0 .196-1.629c-.1-.56-.37-1.125-.81-1.694l-3.041-3.929 1.012-.782 5.783 7.474-.969.748-1.586-2.05.454.264c.181.724.128 1.44-.159 2.147-.28.717-.781 1.354-1.503 1.911ZM101.026 126.628c.816-.407 1.643-.592 2.48-.554.833.054 1.598.31 2.295.766.704.467 1.265 1.119 1.683 1.956.424.848.609 1.688.556 2.519a4.54 4.54 0 0 1-.773 2.277c-.462.687-1.106 1.236-1.933 1.649-.837.418-1.669.606-2.496.562a4.375 4.375 0 0 1-2.287-.749c-.698-.456-1.259-1.109-1.683-1.956-.418-.838-.604-1.677-.555-2.52.043-.826.298-1.59.765-2.293.472-.692 1.122-1.244 1.948-1.657Zm.508 1.015c-.612.305-1.087.71-1.426 1.214a3.31 3.31 0 0 0-.531 1.714c-.027.644.123 1.293.451 1.948.333.665.762 1.175 1.288 1.529a3.19 3.19 0 0 0 1.683.589c.612.043 1.219-.086 1.82-.386.601-.3 1.068-.708 1.401-1.222a3.317 3.317 0 0 0 .556-1.706c.032-.633-.119-1.283-.451-1.948-.328-.655-.757-1.164-1.289-1.53a3.445 3.445 0 0 0-1.707-.596 3.546 3.546 0 0 0-1.795.394ZM93.03 130.184l5.757 8.3-1.187.297-5.277-7.715.542-.136-1.097 9.312-1.065.267-5.329-7.702.541-.136-1.061 9.303-1.135.284 1.174-10.036 1.17-.293 5.08 7.226-.367.092 1.084-8.77 1.17-.293ZM73.118 132.785c.78.024 1.514.155 2.203.392.689.249 1.226.548 1.611.896l-.606.99c-.375-.3-.86-.567-1.452-.801a5.806 5.806 0 0 0-1.88-.364c-.9-.028-1.552.09-1.956.353-.405.276-.614.648-.629 1.116-.01.347.095.621.317.82.21.21.493.369.85.476.356.119.755.222 1.197.307.441.086.883.184 1.323.293.43.109.82.26 1.175.451.354.203.64.47.858.8.206.331.3.766.283 1.306a2.344 2.344 0 0 1-.474 1.372c-.3.399-.73.704-1.289.915-.571.222-1.258.321-2.062.296a6.946 6.946 0 0 1-1.828-.308c-.606-.175-1.104-.401-1.491-.677l.59-1.008c.41.301.854.519 1.33.653.475.147.953.228 1.433.243.851.026 1.486-.105 1.903-.392.404-.276.614-.641.628-1.097.011-.36-.088-.645-.298-.856a2.479 2.479 0 0 0-.866-.513 10.803 10.803 0 0 0-1.197-.307 15.77 15.77 0 0 1-1.305-.31 5.11 5.11 0 0 1-1.193-.451 2.042 2.042 0 0 1-.859-.765c-.218-.319-.32-.736-.303-1.252.017-.552.188-1.027.512-1.425.312-.386.766-.684 1.36-.894.583-.198 1.288-.285 2.115-.259ZM61.038 141.007c-.752-.156-1.38-.438-1.883-.849a3.055 3.055 0 0 1-1.07-1.581c-.208-.655-.219-1.429-.034-2.323l1.112-5.376 1.251.259-1.086 5.252c-.202.976-.107 1.761.285 2.357.377.604 1.006.998 1.888 1.18.658.136 1.262.119 1.811-.049.535-.159.99-.463 1.365-.913.361-.44.614-1.013.76-1.718l1.006-4.865 1.252.258-2.705 13.08-1.252-.259 1.316-6.363.149.527a3.396 3.396 0 0 1-1.735 1.278c-.727.254-1.537.289-2.43.105ZM52.687 128.376c.84.355 1.518.863 2.033 1.523.5.667.802 1.414.908 2.241.102.837-.03 1.687-.395 2.549-.37.873-.888 1.559-1.556 2.059a4.543 4.543 0 0 1-2.234.892c-.823.096-1.66-.036-2.51-.396-.863-.364-1.546-.875-2.05-1.531a4.365 4.365 0 0 1-.916-2.223c-.106-.827.026-1.677.396-2.55.365-.861.883-1.548 1.555-2.058a4.49 4.49 0 0 1 2.242-.909c.834-.091 1.676.043 2.527.403Zm-.442 1.044c-.63-.266-1.247-.364-1.85-.293a3.311 3.311 0 0 0-1.65.71c-.507.398-.903.934-1.189 1.608-.29.685-.398 1.343-.326 1.972.06.625.276 1.179.646 1.661.364.492.856.87 1.475 1.131.619.262 1.233.352 1.84.27a3.313 3.313 0 0 0 1.66-.687c.502-.386.898-.922 1.188-1.608.286-.674.395-1.331.327-1.972a3.438 3.438 0 0 0-.655-1.684 3.54 3.54 0 0 0-1.466-1.108ZM42.335 122.75c.675.458 1.182 1.026 1.52 1.704.33.688.46 1.436.39 2.244-.086.811-.42 1.643-.999 2.497-.58.854-1.227 1.466-1.943 1.837-.722.38-1.46.539-2.216.476-.755-.062-1.476-.326-2.161-.79-.745-.505-1.296-1.125-1.653-1.86a4.244 4.244 0 0 1-.45-2.349c.066-.824.366-1.629.898-2.413.54-.794 1.18-1.375 1.922-1.742a4.414 4.414 0 0 1 2.351-.45c.816.059 1.596.342 2.34.846Zm5.949-.078-7.27 10.708-1.013-.687 1.598-2.353 1.166-1.493.922-1.679 3.539-5.213 1.058.717Zm-6.512 1.067c-.556-.377-1.137-.589-1.743-.637a3.442 3.442 0 0 0-1.77.365c-.576.292-1.069.74-1.48 1.346-.411.606-.643 1.224-.694 1.856a3.435 3.435 0 0 0 .315 1.779c.262.554.67 1.02 1.227 1.397a3.572 3.572 0 0 0 1.768.633 3.443 3.443 0 0 0 1.771-.366c.558-.288 1.043-.735 1.454-1.341.411-.605.651-1.226.72-1.861a3.439 3.439 0 0 0-.316-1.779 3.678 3.678 0 0 0-1.252-1.392ZM23.003 118.034c-.492-.59-.807-1.202-.945-1.837a3.05 3.05 0 0 1 .148-1.902c.246-.642.72-1.255 1.42-1.838l4.22-3.512.819.982-4.123 3.431c-.766.637-1.181 1.31-1.246 2.02-.081.708.166 1.407.742 2.098.43.517.913.88 1.448 1.091a2.784 2.784 0 0 0 1.637.136c.557-.12 1.112-.41 1.665-.87l3.819-3.178.818.981-7.264 6.045-.784-.94 1.993-1.658-.247.463a3.398 3.398 0 0 1-2.154-.081c-.727-.254-1.382-.731-1.966-1.431ZM24.333 102.986c.438.8.653 1.619.647 2.457a4.67 4.67 0 0 1-.68 2.32c-.44.719-1.072 1.303-1.893 1.752-.832.454-1.665.67-2.498.647a4.551 4.551 0 0 1-2.306-.689c-.704-.436-1.278-1.059-1.721-1.87-.45-.821-.668-1.645-.656-2.472a4.373 4.373 0 0 1 .664-2.312c.43-.713 1.061-1.297 1.893-1.752.822-.448 1.654-.664 2.498-.647.828.013 1.602.24 2.322.681.71.446 1.286 1.075 1.73 1.885Zm-.995.544c-.329-.6-.751-1.06-1.268-1.379a3.305 3.305 0 0 0-1.734-.468c-.644-.004-1.288.17-1.93.521-.653.357-1.147.804-1.482 1.343a3.178 3.178 0 0 0-.525 1.702c-.02.613.13 1.214.453 1.803.323.59.748 1.041 1.275 1.355a3.314 3.314 0 0 0 1.727.492c.634.009 1.278-.164 1.93-.521.643-.351 1.137-.799 1.482-1.343a3.435 3.435 0 0 0 .532-1.726c.01-.607-.143-1.2-.46-1.779ZM20.47 95.157l-8.099 6.033-.338-1.177 7.53-5.532.155.536-9.347-.782-.303-1.055 7.515-5.584.154.536-9.336-.747-.323-1.124 10.073.835.333 1.159-7.048 5.319-.104-.363 8.804.787.334 1.159ZM17.143 75.69a7.43 7.43 0 0 1-.307 2.216c-.223.697-.5 1.246-.833 1.644l-1.013-.568c.285-.386.534-.88.745-1.482.2-.601.296-1.232.291-1.892-.007-.9-.15-1.547-.429-1.94-.29-.395-.67-.59-1.138-.586-.348.003-.617.119-.808.348-.202.218-.35.507-.443.868-.105.36-.192.763-.26 1.208-.07.444-.15.889-.242 1.334-.093.432-.228.83-.405 1.19-.19.362-.445.658-.767.889-.323.218-.754.33-1.294.334a2.345 2.345 0 0 1-1.389-.422c-.41-.285-.731-.702-.964-1.252-.244-.562-.37-1.245-.376-2.05a6.91 6.91 0 0 1 .238-1.837c.152-.613.358-1.12.619-1.517l1.03.55a4.152 4.152 0 0 0-.602 1.355 5.41 5.41 0 0 0-.187 1.441c.007.852.162 1.48.465 1.887.291.393.665.588 1.12.585.36-.003.642-.113.844-.33a2.48 2.48 0 0 0 .48-.886c.104-.373.191-.776.26-1.208.069-.445.155-.884.26-1.316.092-.445.227-.848.404-1.21.165-.373.41-.669.732-.887.31-.23.723-.348 1.239-.352.552-.004 1.033.148 1.443.457.399.297.714.739.947 1.325.22.574.334 1.275.34 2.103ZM8.45 63.804c.126-.758.385-1.396.776-1.915a3.06 3.06 0 0 1 1.54-1.13c.647-.233 1.42-.274 2.32-.124l5.415.903-.21 1.26-5.292-.882c-.982-.164-1.764-.038-2.344.376-.59.4-.96 1.044-1.108 1.932-.111.663-.072 1.265.117 1.808.18.529.5.971.964 1.328.453.344 1.035.574 1.745.693l4.9.817-.21 1.26-13.174-2.196.21-1.26 6.41 1.068-.52.169a3.387 3.387 0 0 1-1.343-1.684c-.282-.716-.347-1.524-.197-2.423ZM20.732 54.972c-.324.853-.807 1.55-1.448 2.089a4.678 4.678 0 0 1-2.206.992c-.834.133-1.688.034-2.564-.298-.886-.336-1.591-.828-2.115-1.476a4.535 4.535 0 0 1-.975-2.198c-.126-.818-.025-1.659.303-2.523.332-.875.817-1.576 1.454-2.105a4.377 4.377 0 0 1 2.19-.998c.822-.138 1.676-.038 2.563.298.875.331 1.58.824 2.116 1.476.528.636.859 1.371.991 2.204.122.83.019 1.676-.31 2.54Zm-1.06-.401c.242-.64.317-1.26.224-1.86a3.306 3.306 0 0 0-.77-1.62c-.417-.492-.968-.867-1.652-1.127-.696-.264-1.357-.347-1.984-.252a3.187 3.187 0 0 0-1.636.708c-.48.383-.838.889-1.077 1.517-.239.628-.306 1.245-.202 1.849.093.6.343 1.143.748 1.63.405.488.956.864 1.652 1.128.684.259 1.345.343 1.983.251a3.444 3.444 0 0 0 1.66-.718c.468-.387.819-.89 1.053-1.506ZM25.957 44.393c-.433.691-.982 1.218-1.648 1.58a4.253 4.253 0 0 1-2.23.474c-.814-.056-1.659-.358-2.534-.905-.875-.548-1.51-1.172-1.907-1.873-.407-.707-.592-1.438-.557-2.195.035-.757.272-1.486.712-2.187.478-.763 1.077-1.336 1.8-1.72a4.256 4.256 0 0 1 2.332-.536c.827.036 1.643.305 2.447.808.813.509 1.417 1.127 1.811 1.855.394.727.573 1.504.536 2.33-.03.817-.284 1.606-.762 2.369Zm.295 5.938-10.973-6.863.65-1.037 2.411 1.508 1.536 1.109 1.713.859 5.341 3.34-.678 1.084Zm-1.304-6.463c.357-.57.548-1.157.574-1.764a3.437 3.437 0 0 0-.43-1.755c-.312-.563-.778-1.04-1.4-1.427-.62-.388-1.247-.597-1.88-.625a3.446 3.446 0 0 0-1.768.38c-.545.282-.996.708-1.353 1.278a3.565 3.565 0 0 0-.568 1.788 3.437 3.437 0 0 0 .43 1.755c.308.547.773 1.015 1.393 1.403.621.388 1.25.605 1.887.65a3.443 3.443 0 0 0 1.768-.381c.541-.299.99-.733 1.347-1.302ZM29.967 24.864c.572-.512 1.172-.849 1.802-1.01a3.06 3.06 0 0 1 1.908.079c.651.222 1.282.673 1.89 1.351l3.667 4.086-.952.853-3.582-3.992c-.665-.742-1.354-1.132-2.066-1.17-.711-.056-1.402.216-2.072.817-.5.448-.847.943-1.038 1.485a2.774 2.774 0 0 0-.076 1.64c.14.55.45 1.094.93 1.63l3.319 3.697-.952.853-6.312-7.033.912-.817 1.731 1.93-.472-.23a3.387 3.387 0 0 1 .003-2.154c.227-.735.68-1.406 1.36-2.015ZM44.966 25.677c-.784.466-1.595.712-2.433.735a4.68 4.68 0 0 1-2.345-.594c-.736-.414-1.343-1.023-1.823-1.827-.485-.814-.732-1.637-.74-2.47a4.532 4.532 0 0 1 .603-2.329c.41-.718 1.012-1.314 1.806-1.786.804-.48 1.62-.727 2.448-.745a4.378 4.378 0 0 1 2.336.579c.73.403 1.337 1.012 1.823 1.826.48.804.726 1.628.74 2.472a4.494 4.494 0 0 1-.594 2.343c-.42.725-1.027 1.323-1.821 1.796Zm-.58-.974c.587-.35 1.03-.789 1.33-1.316.295-.538.43-1.121.404-1.749-.02-.644-.218-1.28-.593-1.909-.381-.639-.847-1.116-1.398-1.43a3.19 3.19 0 0 0-1.721-.463c-.614.002-1.21.175-1.787.519-.577.344-1.013.785-1.307 1.322a3.304 3.304 0 0 0-.428 1.743c.014.633.212 1.27.593 1.909.375.628.841 1.105 1.398 1.43.55.315 1.133.47 1.746.469a3.545 3.545 0 0 0 1.762-.525ZM52.608 21.499l-6.34-7.865 1.163-.382 5.818 7.316-.53.175.424-9.366 1.043-.343 5.87 7.3-.531.173.39-9.354 1.111-.365-.45 10.094-1.145.376-5.586-6.842.359-.118-.45 8.825-1.146.376ZM72.152 17.379a7.431 7.431 0 0 1-2.225-.23c-.705-.198-1.263-.457-1.673-.776l.533-1.031c.396.271.898.502 1.507.693a5.835 5.835 0 0 0 1.9.225c.9-.038 1.542-.203 1.926-.496.383-.304.565-.69.545-1.158-.015-.348-.14-.613-.376-.795-.225-.194-.519-.332-.883-.413a9.514 9.514 0 0 0-1.216-.218 25.94 25.94 0 0 1-1.341-.196 5.139 5.139 0 0 1-1.205-.363 2.497 2.497 0 0 1-.914-.736c-.23-.314-.356-.742-.379-1.281a2.345 2.345 0 0 1 .373-1.403c.27-.42.676-.755 1.218-1.007.554-.263 1.232-.412 2.035-.446a6.91 6.91 0 0 1 1.845.174c.618.13 1.13.318 1.538.565l-.514 1.049a4.153 4.153 0 0 0-1.375-.554 5.41 5.41 0 0 0-1.447-.137c-.852.036-1.475.212-1.87.53-.383.304-.565.684-.545 1.14.015.36.135.636.36.831.236.194.536.344.901.448.376.092.782.165 1.216.219.447.053.889.124 1.325.214.447.077.855.198 1.222.362.379.152.683.386.913.7.24.303.372.711.394 1.227.024.551-.112 1.037-.406 1.458-.283.409-.714.74-1.291.992-.567.24-1.263.378-2.09.413ZM83.808 8.258c.762.1 1.409.337 1.94.71.546.362.94.861 1.183 1.498.254.64.322 1.41.203 2.315l-.718 5.443-1.267-.167.701-5.318c.13-.988-.021-1.764-.455-2.33-.42-.575-1.077-.922-1.97-1.04-.665-.087-1.266-.027-1.802.18a2.78 2.78 0 0 0-1.295 1.01c-.328.466-.539 1.055-.633 1.77l-.65 4.924-1.267-.166 1.747-13.242 1.267.167-.85 6.442-.186-.514a3.392 3.392 0 0 1 1.637-1.4c.706-.307 1.511-.4 2.415-.282ZM93.245 20.257c-.864-.294-1.576-.753-2.137-1.375a4.67 4.67 0 0 1-1.065-2.17c-.161-.828-.09-1.685.212-2.571.306-.897.775-1.618 1.405-2.164a4.541 4.541 0 0 1 2.166-1.05c.813-.153 1.657-.081 2.532.217.885.302 1.603.762 2.153 1.38a4.37 4.37 0 0 1 1.071 2.154c.165.817.094 1.674-.212 2.57-.303.887-.771 1.608-1.405 2.165a4.504 4.504 0 0 1-2.172 1.067c-.824.15-1.674.075-2.549-.223Zm.366-1.073c.647.22 1.27.274 1.866.16.6-.124 1.132-.4 1.595-.825.477-.433.834-.996 1.071-1.688.24-.704.302-1.368.186-1.991a3.182 3.182 0 0 0-.763-1.61c-.399-.466-.916-.807-1.552-1.024-.636-.217-1.255-.263-1.855-.138a3.31 3.31 0 0 0-1.606.803c-.474.421-.83.984-1.071 1.688-.237.693-.299 1.357-.186 1.99.117.624.375 1.168.774 1.634.403.454.916.788 1.541 1ZM103.735 24.96c-.707-.406-1.254-.936-1.64-1.587a4.248 4.248 0 0 1-.555-2.21c.027-.814.298-1.67.813-2.563.516-.894 1.117-1.552 1.803-1.974.693-.432 1.418-.645 2.176-.638.757.007 1.495.217 2.213.63.78.448 1.375 1.026 1.785 1.733.426.702.633 1.472.621 2.31-.006.827-.245 1.651-.719 2.472-.479.832-1.075 1.458-1.789 1.878a4.41 4.41 0 0 1-2.311.622c-.818 0-1.616-.224-2.397-.672Zm-5.927.515 6.464-11.212 1.061.61-1.421 2.464-1.053 1.575-.797 1.742-3.146 5.459-1.108-.638Zm6.416-1.542c.582.335 1.177.505 1.785.508a3.445 3.445 0 0 0 1.739-.494c.552-.333 1.011-.817 1.377-1.451.365-.634.551-1.268.556-1.902a3.437 3.437 0 0 0-.445-1.751c-.302-.534-.744-.968-1.326-1.303a3.573 3.573 0 0 0-1.81-.502 3.445 3.445 0 0 0-1.739.495c-.536.328-.987.81-1.352 1.444-.366.634-.559 1.27-.581 1.909a3.437 3.437 0 0 0 .445 1.75c.318.53.768.962 1.351 1.297ZM123.51 28.289c.534.553.892 1.14 1.076 1.763a3.053 3.053 0 0 1-.009 1.908c-.199.658-.626 1.304-1.283 1.937l-3.954 3.809-.887-.92 3.862-3.722c.718-.69 1.083-1.392 1.096-2.105.03-.712-.268-1.392-.893-2.039-.467-.484-.974-.81-1.523-.982a2.783 2.783 0 0 0-1.643-.017c-.546.16-1.078.49-1.597.989l-3.578 3.447-.887-.92 6.805-6.556.85.88-1.866 1.799.212-.48a3.396 3.396 0 0 1 2.154-.075c.743.2 1.432.628 2.065 1.284ZM123.464 43.614c-.492-.767-.765-1.569-.817-2.405a4.676 4.676 0 0 1 .516-2.362c.39-.748.978-1.375 1.767-1.88.798-.511 1.613-.785 2.446-.82a4.545 4.545 0 0 1 2.349.526c.732.386 1.348.968 1.847 1.745.506.788.782 1.595.827 2.42a4.367 4.367 0 0 1-.501 2.353c-.379.742-.968 1.368-1.766 1.88-.788.505-1.603.778-2.447.82a4.504 4.504 0 0 1-2.363-.517c-.739-.395-1.358-.982-1.858-1.76Zm.955-.611c.37.575.823 1.004 1.361 1.286a3.316 3.316 0 0 0 1.763.346c.643-.041 1.273-.26 1.889-.655.627-.401 1.088-.882 1.384-1.442.303-.55.438-1.129.405-1.735-.023-.613-.215-1.202-.578-1.767-.363-.566-.819-.986-1.367-1.263a3.312 3.312 0 0 0-1.757-.37c-.633.035-1.263.253-1.889.655-.617.395-1.078.876-1.384 1.443a3.445 3.445 0 0 0-.411 1.76 3.55 3.55 0 0 0 .584 1.741ZM127.865 51.11l7.645-6.596.422 1.149-7.115 6.057-.192-.524 9.378.11.379 1.032-7.096 6.107-.193-.524 9.366.077.403 1.099-10.107-.112-.416-1.133 6.65-5.81.13.355-8.839-.155-.415-1.132Z" fill="#000"/></svg><svg id="icon-hero-store-m" fill="none" width="68" height="76" viewBox="0 0 68 76" xmlns="http://www.w3.org/2000/svg"><path d="M47.146 31.62a.5.5 0 0 0-.415-.572l-4.445-.704a.5.5 0 0 0-.156.988l3.95.626-.625 3.95a.5.5 0 0 0 .987.157l.704-4.445ZM24.294 48.404l22.652-16.458-.587-.809-22.653 16.459.588.809ZM58.666 40.5c.063-.56.2-1.08.411-1.562.22-.482.467-.85.74-1.108l.677.494a4.078 4.078 0 0 0-.662.999 4.214 4.214 0 0 0-.372 1.332c-.073.646-.026 1.122.14 1.428.174.308.43.48.765.518.25.028.453-.032.61-.18.163-.14.294-.334.392-.585.107-.25.204-.53.292-.843.087-.313.183-.625.288-.936a3.71 3.71 0 0 1 .393-.82c.167-.243.376-.433.627-.57.25-.13.569-.172.956-.129.37.042.69.182.96.422.27.239.464.566.583.98.127.424.158.925.093 1.502-.05.44-.16.872-.33 1.297-.16.427-.352.772-.574 1.035l-.691-.483c.24-.278.423-.585.548-.92.134-.334.22-.673.259-1.017.069-.612.012-1.076-.17-1.393-.175-.307-.426-.48-.754-.516-.258-.029-.469.026-.633.165a1.794 1.794 0 0 0-.42.594c-.107.258-.205.54-.291.844-.088.313-.188.62-.3.921a3.684 3.684 0 0 1-.395.832 1.48 1.48 0 0 1-.6.574c-.243.139-.55.187-.92.146a1.662 1.662 0 0 1-.996-.452c-.26-.247-.448-.59-.564-1.03-.108-.432-.129-.944-.062-1.538ZM63.346 50.117c-.207.514-.488.924-.845 1.23a2.215 2.215 0 0 1-1.262.56c-.493.063-1.045-.027-1.657-.271l-3.681-1.472.344-.856 3.597 1.438c.668.267 1.239.299 1.713.096.479-.19.84-.588 1.082-1.191.181-.45.247-.881.198-1.293a2 2 0 0 0-.474-1.085c-.267-.313-.642-.565-1.125-.758l-3.331-1.332.344-.856 8.957 3.58-.345.857-4.357-1.742.394-.039c.377.385.606.85.686 1.395.087.548.008 1.128-.238 1.739ZM53.471 53.309c.417-.51.907-.877 1.47-1.1a3.392 3.392 0 0 1 1.74-.178c.603.098 1.166.36 1.691.786.532.432.903.93 1.115 1.492.212.562.267 1.138.167 1.726-.1.589-.361 1.141-.784 1.658-.427.523-.92.894-1.478 1.11a3.174 3.174 0 0 1-1.73.187c-.596-.093-1.16-.356-1.691-.787-.525-.426-.896-.924-1.115-1.492a3.235 3.235 0 0 1-.177-1.734c.106-.595.37-1.151.792-1.668Zm.636.516c-.313.383-.506.79-.579 1.222a2.38 2.38 0 0 0 .16 1.284c.173.431.465.814.875 1.147.417.339.852.547 1.304.623a2.31 2.31 0 0 0 1.284-.112 2.512 2.512 0 0 0 1.085-.794 2.5 2.5 0 0 0 .56-1.22c.074-.431.027-.86-.14-1.286-.167-.426-.459-.808-.876-1.147-.41-.333-.845-.54-1.304-.623a2.497 2.497 0 0 0-1.302.114c-.41.16-.766.423-1.067.792ZM47.45 58.762c.491-.327 1.01-.51 1.556-.551a3.08 3.08 0 0 1 1.61.349c.521.278.989.727 1.403 1.346.415.62.65 1.218.703 1.797a2.856 2.856 0 0 1-.283 1.61c-.248.487-.62.896-1.118 1.227-.541.36-1.106.56-1.696.598a3.083 3.083 0 0 1-1.697-.338c-.535-.269-.993-.688-1.374-1.257-.386-.576-.6-1.161-.645-1.757a3.169 3.169 0 0 1 .337-1.692c.262-.528.663-.972 1.205-1.332Zm1.566-3.993 5.202 7.766-.736.49-1.143-1.707-.684-1.185-.875-1.073-2.532-3.78.768-.511Zm-1.055 4.637a2.579 2.579 0 0 0-.902.99 2.473 2.473 0 0 0-.237 1.282c.04.464.206.915.5 1.354.294.44.646.762 1.056.969.41.206.835.297 1.278.273.443-.024.867-.17 1.27-.44a2.57 2.57 0 0 0 .906-1.008c.192-.398.27-.825.236-1.281-.041-.452-.209-.897-.503-1.336-.294-.44-.645-.768-1.052-.987a2.495 2.495 0 0 0-1.279-.273c-.445.036-.87.188-1.273.457ZM38.604 69.322c-.548.085-1.045.052-1.49-.098a2.21 2.21 0 0 1-1.124-.8c-.306-.39-.51-.912-.611-1.562l-.61-3.918.911-.141.597 3.828c.11.71.373 1.218.79 1.522.408.313.933.42 1.576.321.48-.074.883-.237 1.213-.49.321-.243.552-.563.692-.962.132-.389.158-.84.078-1.354l-.552-3.545.912-.141 1.05 6.743-.873.136-.288-1.85.195.325a2.445 2.445 0 0 1-.85 1.302c-.426.355-.965.584-1.616.684ZM30.722 62.48a3.593 3.593 0 0 1 1.698.697c.47.376.817.843 1.041 1.401.223.567.285 1.185.186 1.854-.1.677-.338 1.251-.715 1.721-.376.47-.843.814-1.4 1.03-.558.216-1.167.275-1.827.178-.669-.098-1.239-.33-1.71-.698a3.154 3.154 0 0 1-1.043-1.388c-.225-.559-.286-1.177-.186-1.854.099-.669.337-1.243.714-1.722a3.256 3.256 0 0 1 1.403-1.042c.566-.214 1.18-.273 1.84-.176Zm-.12.811a2.613 2.613 0 0 0-1.346.13c-.41.168-.752.433-1.024.796-.283.37-.463.817-.54 1.34-.079.532-.036 1.01.129 1.438.156.426.407.774.752 1.043.345.279.757.453 1.237.524.48.07.925.022 1.336-.145.409-.16.754-.42 1.035-.781.281-.362.461-.808.54-1.34.077-.523.034-1.002-.13-1.438a2.48 2.48 0 0 0-.763-1.058 2.557 2.557 0 0 0-1.225-.509ZM25.031 61.317l-.996 7.22-.777-.42.965-6.675.355.191-5.14 4.42-.698-.378.931-6.692.355.191-5.118 4.431-.743-.402 5.536-4.766.767.414-.832 6.319-.24-.13 4.869-4.137.766.414ZM14.11 52.716c.33.456.579.934.747 1.432.161.503.227.942.198 1.315l-.835.088a4.059 4.059 0 0 0-.182-1.182 4.205 4.205 0 0 0-.621-1.235c-.381-.526-.737-.847-1.066-.962-.337-.11-.643-.067-.917.13-.204.148-.314.328-.33.542a1.42 1.42 0 0 0 .102.696c.09.256.207.529.353.819.146.29.285.585.416.885.127.294.214.584.261.87.04.292.013.572-.08.842-.099.263-.306.509-.623.737a1.698 1.698 0 0 1-.995.332c-.361.003-.726-.108-1.093-.335-.38-.229-.74-.578-1.08-1.049a4.984 4.984 0 0 1-.63-1.18c-.168-.424-.259-.807-.272-1.15l.838-.106c.01.367.08.716.213 1.047.126.337.29.645.494.926.361.499.716.804 1.065.916.336.11.638.07.905-.123.212-.152.331-.334.36-.547.022-.22-.007-.46-.09-.72a7.618 7.618 0 0 0-.352-.82 11.45 11.45 0 0 1-.398-.882 3.665 3.665 0 0 1-.269-.88c-.059-.289-.039-.565.06-.828.086-.265.28-.506.583-.724a1.667 1.667 0 0 1 1.042-.333c.36.008.73.136 1.113.384.37.246.731.61 1.082 1.095ZM4.162 48.756c-.193-.52-.26-1.012-.203-1.477.047-.47.233-.89.558-1.26.322-.377.792-.68 1.41-.909l3.718-1.375.322.865-3.633 1.343c-.675.25-1.12.608-1.334 1.076-.225.462-.225.998.002 1.607.17.455.41.818.725 1.09.302.267.663.43 1.082.487.408.052.856-.012 1.344-.192l3.365-1.244.322.865-9.047 3.345-.322-.865 4.401-1.628-.265.293a2.456 2.456 0 0 1-1.448-.574c-.435-.347-.767-.83-.997-1.447ZM9.309 39.804a3.594 3.594 0 0 1-.345 1.802 3.374 3.374 0 0 1-1.166 1.3c-.512.33-1.105.515-1.78.551-.684.037-1.293-.082-1.829-.357a3.28 3.28 0 0 1-1.287-1.167c-.322-.504-.502-1.089-.538-1.755-.036-.675.078-1.28.344-1.815.266-.544.65-.977 1.154-1.3.502-.33 1.096-.514 1.78-.55.674-.037 1.284.082 1.828.356.536.267.969.656 1.3 1.167.323.512.503 1.101.539 1.768Zm-.818.044a2.612 2.612 0 0 0-.395-1.294 2.392 2.392 0 0 0-.984-.845c-.419-.203-.892-.29-1.42-.262-.536.029-.998.166-1.384.413a2.299 2.299 0 0 0-.873.945 2.506 2.506 0 0 0-.267 1.317c.027.484.163.91.408 1.28.237.369.56.655.971.858.41.204.884.291 1.42.262.528-.028.99-.166 1.384-.413.386-.246.681-.566.885-.959.196-.392.281-.826.255-1.302ZM10.074 31.709a3.203 3.203 0 0 1-.78 1.453c-.386.395-.862.67-1.428.823-.572.142-1.22.123-1.943-.057-.723-.18-1.298-.468-1.727-.86a2.862 2.862 0 0 1-.872-1.384 3.222 3.222 0 0 1 .003-1.661c.158-.63.443-1.158.853-1.582a3.077 3.077 0 0 1 1.484-.89c.576-.159 1.197-.156 1.86.01.674.168 1.226.458 1.659.87.432.412.728.906.887 1.481.161.568.163 1.167.004 1.797Zm1.524 4.012L2.53 33.455l.216-.857 1.993.498 1.302.419 1.368.208 4.415 1.103-.226.895Zm-2.334-4.148c.118-.47.119-.917.001-1.34a2.48 2.48 0 0 0-.686-1.109c-.34-.317-.766-.54-1.28-.668-.512-.128-.99-.131-1.431-.01a2.49 2.49 0 0 0-1.13.656 2.51 2.51 0 0 0-.645 1.18c-.119.47-.116.922.007 1.355.126.424.355.794.686 1.109.334.307.758.524 1.27.652.514.128.994.137 1.442.025a2.49 2.49 0 0 0 1.13-.655 2.66 2.66 0 0 0 .636-1.195ZM9.497 17.998c.35-.43.74-.74 1.17-.926.43-.2.887-.254 1.372-.164.49.083.992.332 1.505.745l3.087 2.488-.582.717-3.016-2.431c-.56-.451-1.096-.65-1.61-.596-.513.043-.975.316-1.384.82-.306.378-.496.77-.57 1.178-.076.395-.031.787.134 1.176.163.377.447.728.852 1.054l2.793 2.252-.581.717-5.314-4.283.557-.687 1.457 1.175-.363-.11a2.437 2.437 0 0 1-.246-1.533c.078-.55.324-1.08.74-1.592ZM19.828 17.842a3.603 3.603 0 0 1-1.726.626 3.392 3.392 0 0 1-1.717-.336c-.548-.27-1.01-.684-1.389-1.244-.383-.568-.594-1.151-.633-1.751-.04-.6.075-1.167.342-1.701s.677-.987 1.232-1.359c.561-.376 1.14-.587 1.737-.633a3.173 3.173 0 0 1 1.71.325c.542.262 1.005.677 1.388 1.245.378.56.59 1.144.633 1.75a3.237 3.237 0 0 1-.334 1.712c-.274.539-.689.994-1.243 1.366Zm-.458-.679c.41-.275.713-.609.909-1 .19-.4.264-.825.22-1.276-.04-.463-.208-.914-.504-1.352-.3-.446-.656-.77-1.066-.976a2.31 2.31 0 0 0-1.262-.265 2.512 2.512 0 0 0-1.269.444c-.403.27-.7.605-.89 1.005a2.38 2.38 0 0 0-.24 1.271c.037.456.205.907.505 1.352.296.439.652.764 1.067.976.41.205.837.294 1.28.269a2.565 2.565 0 0 0 1.25-.448ZM24.934 14.81l-4.117-6.027.86-.207 3.772 5.6-.392.096.84-6.717.77-.187 3.81 5.593-.391.094.815-6.71.821-.199-.9 7.24-.847.204-3.632-5.247.265-.064-.828 6.326-.846.205ZM38.791 13.856a5.364 5.364 0 0 1-1.514-.563c-.457-.266-.8-.548-1.028-.845l.56-.625c.227.262.537.514.927.757.393.235.823.402 1.289.502.635.136 1.114.136 1.436.001.323-.143.52-.38.592-.71.052-.246.013-.454-.119-.624a1.424 1.424 0 0 0-.542-.449 6.875 6.875 0 0 0-.81-.372 18.631 18.631 0 0 1-.903-.38c-.29-.133-.55-.29-.776-.471a1.801 1.801 0 0 1-.505-.68c-.104-.261-.114-.583-.032-.964.078-.364.25-.669.516-.913.265-.245.61-.406 1.035-.484.434-.084.936-.065 1.504.056.432.093.851.244 1.258.456.408.202.732.427.972.673l-.55.64a2.996 2.996 0 0 0-.86-.636 3.906 3.906 0 0 0-.987-.358c-.602-.128-1.07-.117-1.404.033-.323.143-.52.376-.589.698-.054.254-.021.47.1.646.13.179.314.337.55.477.246.132.516.256.81.372.303.118.599.248.887.39.3.134.562.292.789.474.237.175.407.393.51.654.114.255.132.564.054.929-.084.39-.267.705-.55.946-.272.234-.633.387-1.083.46-.44.065-.952.035-1.537-.09ZM48.931 10.152c.492.256.872.576 1.14.96.28.381.424.817.43 1.31.014.495-.133 1.035-.439 1.618l-1.842 3.51-.819-.426 1.8-3.43c.335-.637.425-1.201.271-1.692-.141-.494-.5-.891-1.077-1.192-.43-.224-.853-.332-1.269-.324-.403.005-.78.126-1.13.364-.338.234-.628.581-.87 1.042l-1.667 3.177-.818-.427 4.482-8.541.818.426-2.18 4.156.001-.395a2.458 2.458 0 0 1 1.46-.544c.556-.033 1.125.103 1.71.408ZM51.16 20.256a3.587 3.587 0 0 1-.954-1.566 3.361 3.361 0 0 1-.007-1.744c.158-.588.475-1.121.952-1.6.483-.485 1.016-.805 1.599-.96a3.294 3.294 0 0 1 1.74.002c.578.157 1.103.47 1.578.94.48.475.802 1 .963 1.575.168.58.173 1.159.016 1.734-.152.582-.469 1.116-.952 1.6-.477.48-1.01.8-1.599.961a3.266 3.266 0 0 1-1.749.006c-.584-.163-1.113-.479-1.587-.948Zm.578-.58c.351.347.739.578 1.163.693.43.108.862.098 1.298-.032.447-.13.858-.383 1.23-.758.38-.38.63-.791.751-1.232a2.29 2.29 0 0 0 .014-1.285 2.501 2.501 0 0 0-.686-1.154 2.512 2.512 0 0 0-1.162-.675 2.4 2.4 0 0 0-1.298.014c-.442.124-.852.376-1.231.757-.373.375-.624.785-.751 1.233-.121.44-.126.875-.014 1.303.118.422.347.8.686 1.135ZM55.984 26.649a3.194 3.194 0 0 1-.403-1.598c.018-.55.185-1.073.5-1.566.327-.49.819-.91 1.476-1.262s1.277-.526 1.86-.524a2.88 2.88 0 0 1 1.579.437c.463.293.836.703 1.12 1.23.308.571.454 1.152.437 1.741a3.058 3.058 0 0 1-.498 1.653c-.319.505-.78.919-1.383 1.242-.611.327-1.216.484-1.814.47a3.197 3.197 0 0 1-1.657-.499c-.503-.31-.908-.752-1.217-1.324Zm-3.837-1.942 8.24-4.412.42.778-1.812.97-1.246.564-1.153.765-4.011 2.148-.438-.813Zm4.529 1.498c.23.427.531.757.903.99.38.23.798.35 1.257.36.466.006.932-.116 1.398-.366.466-.249.821-.567 1.066-.954.244-.386.376-.8.393-1.243a2.501 2.501 0 0 0-.319-1.303 2.582 2.582 0 0 0-.92-.997 2.494 2.494 0 0 0-1.258-.359c-.454-.002-.914.121-1.38.37-.466.25-.827.567-1.084.95-.244.386-.375.8-.393 1.242-.006.446.106.883.337 1.31Z" fill="#000"/></svg></defs></svg>